<mxfile host="app.diagrams.net" modified="2023-11-23T11:53:09.258Z" agent="Mozilla/5.0 (Macintosh; Intel Mac OS X 10_15_7) AppleWebKit/537.36 (KHTML, like Gecko) Chrome/113.0.0.0 Safari/537.36" version="22.1.3" etag="Z84pezNCuABE-A556Pqv" type="github">
  <diagram name="Page-1" id="mPvueNF8jEJ4Vxe41LHe">
    <mxGraphModel>
      <root>
        <mxCell id="0" />
        <mxCell id="1" parent="0" />
      </root>
    </mxGraphModel>
  </diagram>
</mxfile>
